<?xml version="1.0" encoding="iso-8859-1"?>
<!-- Generator: Adobe Illustrator 19.0.0, SVG Export Plug-In . SVG Version: 6.00 Build 0)  -->
<svg version="1.1" id="Capa_1" xmlns="http://www.w3.org/2000/svg" xmlns:xlink="http://www.w3.org/1999/xlink" x="0px" y="0px"
	 viewBox="0 0 512 512" style="enable-background:new 0 0 512 512;" xml:space="preserve">
<path style="fill:#C7CFE2;" d="M48.432,228.57c18.336,12.916,59.781,50.343,42.5,130.844L68.36,411.425
	c43.378-46.782,117.601-43.114,138.944-40.953c3.547,0.359,6.854-1.644,8.228-4.935c74.019-177.378,216.6-308.114,267.716-351.093
	c6.003-5.048,2.104-14.873-5.727-14.429C245.838,13.13,80.845,179.639,47.115,216.391C43.773,220.032,44.392,225.724,48.432,228.57z
	"/>
<g>
	<path style="fill:#D5DCED;" d="M82.863,378.008c37.89-79.539,154.954-280.704,402.338-373.485c-1.352-2.693-4.064-4.713-7.68-4.509
		C245.838,13.13,80.845,179.639,47.115,216.39c-3.342,3.641-2.723,9.333,1.317,12.18c18.336,12.916,59.781,50.343,42.5,130.844
		L82.863,378.008z"/>
	<path style="fill:#D5DCED;" d="M44.132,281.818c-3.56-2.746-8.67-2.078-11.412,1.494c-2.742,3.56-2.066,8.67,1.494,11.412
		c0.469,0.362,46.976,37.014,31.066,102.308l18.985-15.9C90.028,318.191,46.197,283.403,44.132,281.818z"/>
</g>
<path style="fill:#AFB9D2;" d="M217.348,267.974c-45.243-10.411-81.665,8.853-83.199,9.676l3.878,15.294
	c1.295,0,2.607-0.306,3.831-0.958c0.318-0.171,32.774-17.154,71.835-8.15c4.419,1.009,8.75-1.725,9.759-6.107
	C224.461,273.35,221.727,268.983,217.348,267.974z"/>
<path style="fill:#C7CFE2;" d="M198.053,131.962c-3.076-3.29-8.209-3.473-11.508-0.397c-3.282,3.068-3.457,8.217-0.397,11.5
	c0.175,0.183,16.657,19.248,6.962,58.992l18.502-11.087C216.284,152.183,198.882,132.855,198.053,131.962z"/>
<path style="fill:#7F8499;" d="M33.975,512c-0.66,0-1.327-0.079-1.987-0.246c-4.363-1.093-7.009-5.511-5.913-9.87l0.238-0.954
	c15.958-64.018,87.633-285.566,339.948-448.439c3.759-2.432,8.805-1.351,11.245,2.424c2.44,3.779,1.359,8.813-2.424,11.253
	C127.792,225.798,57.698,442.311,42.105,504.867l-0.246,0.974C40.937,509.536,37.615,512,33.975,512z"/>
<g>
</g>
<g>
</g>
<g>
</g>
<g>
</g>
<g>
</g>
<g>
</g>
<g>
</g>
<g>
</g>
<g>
</g>
<g>
</g>
<g>
</g>
<g>
</g>
<g>
</g>
<g>
</g>
<g>
</g>
</svg>
